<svg width="22" height="22" viewBox="0 0 22 22" fill="none" xmlns="http://www.w3.org/2000/svg">
<mask id="mask0_0_103391" style="mask-type:luminance" maskUnits="userSpaceOnUse" x="0" y="0" width="22" height="22">
<rect width="22" height="22" fill="white"/>
</mask>
<g mask="url(#mask0_0_103391)">
<path fill-rule="evenodd" clip-rule="evenodd" d="M17.4167 12.4538V9.16665C17.4167 6.21773 15.4138 3.73356 12.7004 2.98648C12.4318 2.30998 11.7755 1.83331 11 1.83331C10.2245 1.83331 9.56817 2.30998 9.29958 2.98648C6.58625 3.73448 4.58333 6.21773 4.58333 9.16665V12.4538L3.01858 14.0186C2.84625 14.19 2.75 14.4228 2.75 14.6666V16.5C2.75 17.0069 3.15975 17.4166 3.66667 17.4166H18.3333C18.8402 17.4166 19.25 17.0069 19.25 16.5V14.6666C19.25 14.4228 19.1537 14.19 18.9814 14.0186L17.4167 12.4538ZM17.4168 15.5833H4.5835V15.0461L6.14825 13.4814C6.32058 13.31 6.41683 13.0771 6.41683 12.8333V9.16665C6.41683 6.6394 8.47291 4.58331 11.0002 4.58331C13.5274 4.58331 15.5835 6.6394 15.5835 9.16665V12.8333C15.5835 13.0771 15.6797 13.31 15.8521 13.4814L17.4168 15.0461V15.5833ZM11.0002 20.1666C12.2019 20.1666 13.2066 19.4021 13.5833 18.3333H8.41699C8.79374 19.4021 9.79841 20.1666 11.0002 20.1666Z" fill="#495057"/>
</g>
</svg>
