<svg width="19" height="19" viewBox="0 0 19 19" fill="none" xmlns="http://www.w3.org/2000/svg">
<path fill-rule="evenodd" clip-rule="evenodd" d="M17.0136 10.9579C16.3931 11.1229 15.7523 11.2063 15.1097 11.2063C13.1526 11.2063 11.3147 10.4455 9.93422 9.065C8.09356 7.22434 7.36847 4.51192 8.04222 1.98559C8.12655 1.66934 8.0358 1.332 7.8048 1.101C7.5738 0.870004 7.23739 0.776504 6.9193 0.864504C5.35914 1.28159 3.93647 2.10017 2.80439 3.23134C-0.76878 6.8045 -0.76878 12.6208 2.80439 16.1958C4.53597 17.9273 6.83864 18.8816 9.28705 18.8816C11.7355 18.8816 14.0372 17.9283 15.7679 16.1967C16.9009 15.0628 17.7204 13.6383 18.1356 12.0799C18.22 11.7637 18.1283 11.4263 17.8973 11.1953C17.6663 10.9634 17.3281 10.8718 17.0136 10.9579ZM14.4728 14.9005C13.0877 16.2856 11.2461 17.0483 9.28813 17.0483C7.32922 17.0483 5.48763 16.2847 4.10163 14.8996C1.24347 12.0405 1.24347 7.38751 4.10163 4.52842C4.65347 3.97659 5.29147 3.51826 5.98997 3.16901C5.78647 5.81359 6.73613 8.46001 8.63913 10.363C10.5348 12.2596 13.1556 13.223 15.8331 13.0131C15.483 13.7088 15.0237 14.3478 14.4728 14.9005Z" fill="#495057"/>
</svg>
