<svg width="15" height="14" viewBox="0 0 15 14" fill="none" xmlns="http://www.w3.org/2000/svg">
<path fill-rule="evenodd" clip-rule="evenodd" d="M5.70518 0.25C8.60932 0.25 10.9634 2.4325 10.9634 5.125C10.9634 6.3325 10.4861 7.4425 9.7014 8.2975L9.91982 8.5H10.5589L14.6036 12.25L13.3902 13.375L9.34546 9.625V9.0325L9.12704 8.83C8.20484 9.5575 7.00759 10 5.70518 10C2.80104 10 0.446991 7.8175 0.446991 5.125C0.446991 2.4325 2.80104 0.25 5.70518 0.25ZM5.70519 1.75C3.68281 1.75 2.06491 3.25 2.06491 5.125C2.06491 7 3.68281 8.5 5.70519 8.5C7.72757 8.5 9.34548 7 9.34548 5.125C9.34548 3.25 7.72757 1.75 5.70519 1.75Z" fill="#878A99"/>
</svg>
