<svg width="18" height="18" viewBox="0 0 18 18" fill="none" xmlns="http://www.w3.org/2000/svg">
<mask id="mask0_0_103560" style="mask-type:luminance" maskUnits="userSpaceOnUse" x="-1" y="0" width="19" height="18">
<rect x="-0.00149536" width="18" height="18" fill="white"/>
</mask>
<g mask="url(#mask0_0_103560)">
<path d="M13.4985 2.25C12.2559 2.25 11.2485 3.25736 11.2485 4.5V13.5C11.2485 14.7426 12.2559 15.75 13.4985 15.75C14.7411 15.75 15.7485 14.7426 15.7485 13.5C15.7485 12.2574 14.7411 11.25 13.4985 11.25H4.4985C3.25586 11.25 2.2485 12.2574 2.2485 13.5C2.2485 14.7426 3.25586 15.75 4.4985 15.75C5.74114 15.75 6.7485 14.7426 6.7485 13.5V4.5C6.7485 3.25736 5.74114 2.25 4.4985 2.25C3.25586 2.25 2.2485 3.25736 2.2485 4.5C2.2485 5.74264 3.25586 6.75 4.4985 6.75H13.4985C14.7411 6.75 15.7485 5.74264 15.7485 4.5C15.7485 3.25736 14.7411 2.25 13.4985 2.25V2.25Z" stroke="#6D7080" stroke-width="2" stroke-linecap="round" stroke-linejoin="round"/>
</g>
</svg>
