<svg width="18" height="18" viewBox="0 0 18 18" fill="none" xmlns="http://www.w3.org/2000/svg">
<path fill-rule="evenodd" clip-rule="evenodd" d="M3.74851 9.75003C3.74851 5.93403 5.92576 2.67303 8.99851 1.36353C12.0713 2.67303 14.2485 5.93403 14.2485 9.75003C14.2485 10.3673 14.1915 10.9695 14.0835 11.5523L15.5385 12.9263C15.6622 13.0434 15.6915 13.2291 15.6098 13.3785L13.7385 16.8098C13.6819 16.9137 13.5796 16.9847 13.4626 17.0016C13.3455 17.0184 13.2273 16.979 13.1438 16.8953L11.4683 15.2198C11.3276 15.0791 11.1369 15.0001 10.938 15H7.05901C6.86011 15.0001 6.66938 15.0791 6.52876 15.2198L4.85326 16.8953C4.76971 16.979 4.65154 17.0184 4.53446 17.0016C4.41737 16.9847 4.3151 16.9137 4.25851 16.8098L2.38726 13.3785C2.30555 13.2291 2.33481 13.0434 2.45851 12.9263L3.91351 11.5523C3.80626 10.9695 3.74851 10.3673 3.74851 9.75003ZM4.8561 14.772L5.46885 14.1593C5.89071 13.7373 6.46291 13.5002 7.0596 13.5L10.9386 13.5C11.5353 13.5002 12.1075 13.7373 12.5293 14.1593L13.1421 14.772L13.8786 13.422L13.0536 12.642C12.6831 12.2921 12.5156 11.778 12.6088 11.277C12.7018 10.779 12.7491 10.2683 12.7491 9.75003C12.7491 6.84753 11.2528 4.27503 8.9991 3.03003C6.74535 4.27503 5.2491 6.84753 5.2491 9.75003C5.2491 10.2683 5.29635 10.779 5.38935 11.2778C5.4826 11.7788 5.3151 12.2929 4.9446 12.6428L4.1196 13.422L4.8561 14.772ZM8.9985 9.75C8.46261 9.75 7.96742 9.4641 7.69947 9C7.43152 8.5359 7.43152 7.9641 7.69947 7.5C7.96742 7.0359 8.46261 6.75 8.9985 6.75C9.5344 6.75 10.0296 7.0359 10.2975 7.5C10.5655 7.9641 10.5655 8.5359 10.2975 9C10.0296 9.4641 9.5344 9.75 8.9985 9.75Z" fill="#6D7080"/>
</svg>
