<svg width="40" height="40" viewBox="0 0 40 40" fill="none" xmlns="http://www.w3.org/2000/svg">
<path fill-rule="evenodd" clip-rule="evenodd" d="M5.27039 7.44833C9.28101 3.43699 15.7069 3.19857 20.0037 6.90167C24.2964 3.20507 30.7122 3.43987 34.7232 7.44035C38.7341 11.4408 38.9857 17.856 35.3004 22.1583L22.3587 35.1417C21.1254 36.3754 19.1494 36.4496 17.8271 35.3117L17.6437 35.1433L4.70372 22.1583C1.02053 17.86 1.26743 11.4506 5.27039 7.44833L5.27039 7.44833ZM7.62712 9.80501C4.79606 12.6369 4.68893 17.1932 7.38379 20.155L7.62712 20.4117L20.0021 32.7867L28.8405 23.9467L22.9488 18.055L21.1821 19.8217C19.9192 21.0852 18.0781 21.579 16.3524 21.117C14.6267 20.6551 13.2785 19.3075 12.8157 17.582C12.3529 15.8565 12.8459 14.0152 14.1088 12.7517L17.6121 9.24668C14.7321 6.94815 10.6091 7.08165 7.88379 9.56168L7.62713 9.80501L7.62712 9.80501ZM21.7704 14.5183C22.4212 13.8677 23.4762 13.8677 24.1271 14.5183L31.1971 21.5883L32.3771 20.4117C35.2592 17.5316 35.3148 12.8773 32.5021 9.92925C29.6895 6.98123 25.0377 6.81802 22.0254 9.56168L21.7704 9.80501L16.4671 15.1083C15.8691 15.7059 15.8132 16.6565 16.3371 17.32L16.4671 17.465C17.0646 18.063 18.0152 18.1188 18.6787 17.595L18.8237 17.465L21.7704 14.5183Z" fill="#9499AD"/>
</svg>
