<svg width="40" height="40" viewBox="0 0 40 40" fill="none" xmlns="http://www.w3.org/2000/svg">
<path fill-rule="evenodd" clip-rule="evenodd" d="M4.80009 30.09C7.09373 19.9412 11.9944 10.5661 19.0184 2.89002C19.2709 2.6153 19.627 2.45896 20.0001 2.45895C20.3732 2.45895 20.7293 2.61529 20.9818 2.89001C21.2584 3.19001 21.4884 3.44334 21.6701 3.64834C28.331 11.1848 32.9844 20.2789 35.2001 30.09C31.6318 30.8417 27.9668 31.335 24.2268 31.5467L20.7451 38.51C20.6038 38.7919 20.3154 38.9699 20.0001 38.9699C19.6847 38.9699 19.3964 38.7919 19.2551 38.51L15.7734 31.5467C12.0842 31.3382 8.41594 30.8512 4.80005 30.09L4.80009 30.09ZM15.9635 28.2183L17.8918 28.3283L20.0001 32.545L22.1085 28.3283L24.0368 28.2183C26.3964 28.0848 28.7477 27.8323 31.0818 27.4617C28.8705 19.8815 25.0955 12.8487 20.0001 6.81668C14.9047 12.8487 11.1297 19.8815 8.91846 27.4617C11.2435 27.8317 13.5935 28.085 15.9635 28.2183ZM20 25C18.2137 25 16.563 24.047 15.6699 22.5C14.7767 20.953 14.7767 19.047 15.6699 17.5C16.563 15.953 18.2137 15 20 15C21.7863 15 23.437 15.953 24.3301 17.5C25.2233 19.047 25.2233 20.953 24.3301 22.5C23.437 24.047 21.7863 25 20 25ZM20.0002 21.6667C20.9206 21.6667 21.6668 20.9205 21.6668 20C21.6668 19.0795 20.9206 18.3333 20.0002 18.3333C19.0797 18.3333 18.3335 19.0795 18.3335 20C18.3335 20.9205 19.0797 21.6667 20.0001 21.6667H20.0002Z" fill="#9499AD"/>
</svg>
