<svg width="18" height="18" viewBox="0 0 18 18" fill="none" xmlns="http://www.w3.org/2000/svg">
<path fill-rule="evenodd" clip-rule="evenodd" d="M7.2778 16.7844V7.72871C7.2778 7.7037 7.28664 7.68236 7.30432 7.66468C7.32201 7.64699 7.34335 7.63815 7.36836 7.63815H10.6284C10.6534 7.63815 10.6748 7.64699 10.6925 7.66468C10.7101 7.68236 10.719 7.7037 10.719 7.72871V16.7844C10.719 16.8094 10.7101 16.8308 10.6925 16.8485C10.6748 16.8662 10.6534 16.875 10.6284 16.875C10.6034 16.875 10.5821 16.8662 10.5644 16.8485C10.5467 16.8308 10.5379 16.8094 10.5379 16.7844V7.81927H7.45892V16.7844C7.45892 16.8094 7.45007 16.8308 7.43239 16.8485C7.41471 16.8662 7.39337 16.875 7.36836 16.875C7.34335 16.875 7.32201 16.8662 7.30432 16.8485C7.28664 16.8308 7.2778 16.8094 7.2778 16.7844Z" fill="#FAFAFA" stroke="#FAFAFA"/>
<mask id="mask0_0_103602" style="mask-type:luminance" maskUnits="userSpaceOnUse" x="-1" y="0" width="19" height="18">
<rect x="-0.00149536" width="18" height="18" fill="white"/>
</mask>
<g mask="url(#mask0_0_103602)">
<path d="M2.2485 6.75L8.9985 1.5L15.7485 6.75V15C15.7485 15.8284 15.0769 16.5 14.2485 16.5H3.7485C2.92008 16.5 2.2485 15.8284 2.2485 15V6.75Z" stroke="#FAFAFA" stroke-width="2" stroke-linecap="round" stroke-linejoin="round"/>
</g>
</svg>
